<svg width="914" height="256" viewBox="0 0 914 256" fill="none" xmlns="http://www.w3.org/2000/svg">
<g clip-path="url(#clip0_5_47)">
<path fill-rule="evenodd" clip-rule="evenodd" d="M271.451 75.7884H246.954V216.53H271.821V172.63C274.578 174.881 277.64 176.789 280.996 178.354L281.038 178.373L281.081 178.392C287.649 181.262 294.777 182.674 302.415 182.674C312.423 182.674 321.557 180.295 329.715 175.48C337.828 170.692 344.225 164.136 348.873 155.87C353.535 147.57 355.84 138.331 355.84 128.241C355.84 118.155 353.539 108.92 348.876 100.623C344.236 92.2396 337.835 85.6164 329.715 80.8219C321.565 76.0113 312.495 73.6273 302.6 73.6273C294.711 73.6273 287.436 75.101 280.838 78.115L280.811 78.1276C277.4 79.7182 274.277 81.6457 271.451 83.9102V75.7884ZM326.044 144.106C323.663 148.636 320.278 152.197 315.822 154.841L315.788 154.862C311.492 157.474 306.636 158.807 301.119 158.807C295.603 158.807 290.669 157.474 286.232 154.841C281.763 152.189 278.23 148.604 275.597 144.029C273.099 139.361 271.821 134.124 271.821 128.241C271.821 122.351 273.102 117.109 275.606 112.436C278.246 107.737 281.779 104.103 286.232 101.461C290.669 98.8276 295.603 97.4945 301.119 97.4945C306.636 97.4945 311.492 98.8273 315.788 101.439C320.114 104.072 323.533 107.7 326.063 112.405C328.574 117.086 329.861 122.338 329.861 128.241C329.861 134.144 328.574 139.395 326.063 144.076L326.044 144.106ZM368.715 140.307C368.715 148.427 370.442 155.795 373.994 162.31L374.01 162.339C377.555 168.706 382.493 173.717 388.783 177.308C395.089 180.911 402.171 182.674 409.927 182.674C416.604 182.674 422.737 181.372 428.258 178.687C430.555 177.568 432.672 176.236 434.597 174.694V180.513H459.095V75.7884H434.042V137.065C434.042 144.094 432.067 149.314 428.449 153.139C424.824 156.855 420.065 158.807 413.813 158.807C407.519 158.807 402.745 156.888 399.124 153.265C395.506 149.648 393.584 144.855 393.584 138.506V75.7884H368.715V140.307ZM502.968 36.53H478.103V180.513H502.968V36.53ZM562.392 99.4753L512.21 161.094V180.513H597.965V156.826H547.917L597.594 95.1966V75.7884H515.173V99.4753H562.392ZM610.025 155.848L610.036 155.87C614.692 164.152 621.165 170.709 629.404 175.493C637.673 180.295 646.858 182.674 656.865 182.674C667.347 182.674 676.799 180.244 685.103 175.291C693.307 170.398 699.325 164.09 702.905 156.316L704.459 152.944L683.564 142.515L681.73 145.51C675.857 155.108 667.753 159.707 657.049 159.707C651.972 159.707 647.348 158.587 643.113 156.372C639.013 154.163 635.671 151.073 633.056 147.045C631.15 144.109 629.867 140.756 629.251 136.933H704.448L705.041 133.819C705.696 130.386 706.033 127.142 706.033 124.099C706.033 115.322 703.973 107.083 699.854 99.4416C695.822 91.6062 689.9 85.338 682.174 80.6695C674.456 75.929 665.479 73.6273 655.383 73.6273C645.621 73.6273 636.682 75.9462 628.657 80.6323L628.631 80.6469C620.752 85.3257 614.485 91.8276 609.852 100.072L609.829 100.113C605.301 108.413 603.069 117.699 603.069 127.881C603.069 138.083 605.369 147.433 610.025 155.848ZM672.366 102.744L672.397 102.775L672.431 102.805C676.091 106.126 678.365 110.103 679.265 114.866H630.158C631.663 109.753 634.312 105.69 638.052 102.536L638.087 102.505C642.91 98.3309 648.611 96.2337 655.383 96.2337C662.244 96.2337 667.818 98.4228 672.366 102.744ZM730.408 176.465L730.488 176.549L730.572 176.627C733.409 179.223 736.874 180.513 740.748 180.513C744.691 180.513 748.214 179.25 750.901 176.464C753.608 173.666 754.94 170.171 754.94 166.238C754.94 162.326 753.619 158.856 750.863 156.151C748.137 153.357 744.676 151.964 740.748 151.964C736.801 151.964 733.31 153.364 730.488 156.11C727.705 158.82 726.369 162.306 726.369 166.238C726.369 170.171 727.701 173.666 730.408 176.465ZM748.148 173.802L750.905 176.46L750.901 176.464L748.148 173.802ZM786.107 174.219L786.141 174.246C793.143 179.971 802.086 182.674 812.622 182.674C820.252 182.674 827.277 181.265 833.625 178.374C836.875 176.924 839.83 175.192 842.476 173.173V180.513H866.973V110.773C866.973 103.607 865.124 97.1081 861.361 91.3998C857.732 85.711 852.602 81.3615 846.113 78.3279C839.715 75.1584 832.468 73.6273 824.467 73.6273C814.911 73.6273 806.033 76.0259 797.906 80.8219C789.816 85.5965 783.997 91.7575 780.782 99.3784L779.388 102.676L801.152 113.657L802.791 109.998C804.582 105.996 807.293 102.852 810.984 100.493L811.003 100.48C814.781 98.0299 819.104 96.7741 824.096 96.7741C829.819 96.7741 834.141 98.2597 837.388 100.941L837.415 100.962L837.441 100.983C840.585 103.486 842.104 106.637 842.104 110.773V112.004L811.282 116.895L811.263 116.898C799.835 118.772 790.766 122.6 784.568 128.768C778.496 134.814 775.483 142.415 775.483 151.292C775.483 160.57 779.055 168.316 786.107 174.219ZM838.598 148.214L838.575 148.247L838.555 148.281C836.339 152.079 833.169 155.142 828.931 157.472C824.873 159.649 820.149 160.788 814.659 160.788C810.455 160.788 807.209 159.684 804.667 157.677C802.308 155.728 801.275 153.495 801.275 150.751C801.275 147.219 802.423 144.66 804.594 142.697C806.895 140.617 810.67 138.92 816.389 137.963L816.401 137.961L842.104 133.818V135.444C842.104 140.17 840.929 144.396 838.598 148.214ZM910.87 75.7884H886V180.513H910.87V75.7884ZM888.087 43.3773C885.269 46.1178 883.968 49.6811 883.968 53.6859C883.968 57.6911 885.269 61.2544 888.087 63.995C890.893 66.7252 894.499 67.9607 898.527 67.9607C902.554 67.9607 906.164 66.7252 908.971 63.995C911.785 61.2544 913.09 57.6911 913.09 53.6859C913.09 49.681 911.785 46.1178 908.971 43.3773C906.164 40.6467 902.554 39.4114 898.527 39.4114C894.499 39.4114 890.893 40.6467 888.087 43.3773Z" fill="#1D224E"/>
<g clip-path="url(#clip1_5_47)">
<path d="M35.5697 239.96C31.3224 239.96 27.8707 236.509 27.8707 232.261V71.8646C27.8707 67.6173 31.3224 64.1655 35.5697 64.1655C39.817 64.1655 43.2688 67.6173 43.2688 71.8646V232.261C43.2688 236.509 39.817 239.96 35.5697 239.96ZM71.0495 248.301V87.9042C71.0495 83.6569 67.5977 80.2052 63.3504 80.2052C59.1031 80.2052 55.6514 83.6569 55.6514 87.9042V248.301C55.6514 252.548 59.1031 256 63.3504 256C67.5977 256 71.0495 252.548 71.0495 248.301ZM15.4881 216.222V55.8249C15.4881 51.5776 12.0363 48.1259 7.78901 48.1259C3.5417 48.1259 0.0899658 51.5776 0.0899658 55.8249V216.222C0.0899658 220.469 3.5417 223.921 7.78901 223.921C12.0363 223.921 15.4881 220.469 15.4881 216.222ZM125.584 91.7538C127.714 88.0711 126.444 83.3618 122.761 81.2317L39.4192 33.1127C35.7365 30.9826 31.0273 32.253 28.8972 35.9357C26.7672 39.6184 28.0375 44.3277 31.7202 46.4577L115.062 94.5767C116.281 95.2825 117.603 95.6033 118.899 95.6033C121.555 95.6033 124.147 94.2175 125.572 91.7538H125.584ZM153.365 75.7141C155.495 72.0314 154.225 67.3221 150.542 65.1921L67.2 17.073C63.5172 14.943 58.808 16.2133 56.6779 19.896C54.5479 23.5787 55.8182 28.288 59.5009 30.4181L142.843 78.5371C144.062 79.2428 145.384 79.5636 146.68 79.5636C149.336 79.5636 151.928 78.1778 153.352 75.7141H153.365ZM181.146 59.6744C183.276 55.9917 182.006 51.2825 178.323 49.1524L94.9807 1.03337C91.298 -1.0967 86.5887 0.173645 84.4586 3.85635C82.3286 7.53906 83.5989 12.2483 87.2816 14.3784L170.624 62.4974C171.843 63.2031 173.164 63.5239 174.46 63.5239C177.117 63.5239 179.709 62.1381 181.133 59.6744H181.146ZM94.9807 206.854L178.323 158.735C182.006 156.605 183.263 151.896 181.146 148.213C179.016 144.531 174.306 143.273 170.624 145.39L87.2816 193.509C83.5989 195.64 82.3414 200.349 84.4586 204.031C85.883 206.495 88.475 207.881 91.1311 207.881C92.44 207.881 93.7617 207.547 94.9678 206.854H94.9807ZM94.9807 174.775L178.323 126.656C182.006 124.526 183.263 119.817 181.146 116.134C179.016 112.451 174.306 111.194 170.624 113.311L87.2816 161.43C83.5989 163.56 82.3414 168.269 84.4586 171.952C85.883 174.416 88.475 175.802 91.1311 175.802C92.44 175.802 93.7617 175.468 94.9678 174.775H94.9807ZM94.9807 142.696L178.323 94.5767C182.006 92.4467 183.263 87.7374 181.146 84.0547C179.016 80.372 174.306 79.1145 170.624 81.2317L87.2816 129.351C83.5989 131.481 82.3414 136.19 84.4586 139.873C85.883 142.336 88.475 143.722 91.1311 143.722C92.44 143.722 93.7617 143.389 94.9678 142.696H94.9807Z" fill="#FD1F8A"/>
</g>
</g>
<defs>
<clipPath id="clip0_5_47">
<rect width="913" height="256" fill="white" transform="translate(0.0899658)"/>
</clipPath>
<clipPath id="clip1_5_47">
<rect width="182.09" height="256" fill="white" transform="translate(0.0899658)"/>
</clipPath>
</defs>
</svg>
